<?xml version="1.0" encoding="UTF-8"?><svg id="Layer_1" xmlns="http://www.w3.org/2000/svg" viewBox="0 0 537.92 329.9"><defs><style>.cls-1{fill:#051c37;}.cls-2{fill:#0091ff;}</style></defs><g><path class="cls-1" d="M151.25,107.62c0-11.24,9.62-19.78,21.35-19.78,4.76,0,8.38,1.24,11.51,2.81l.16,9.84h-1.57l-3.46-7.78c-2.11-1.73-4.54-2.92-7.94-2.92-6.54,0-11.46,6.27-11.46,15.67,0,12,5.84,18.27,12.81,18.27,3.08,0,5.19-1.19,6.54-2.32l5.08-8.7h1.62l-1.84,9.94c-4.43,2-8.16,3.13-13.02,3.13-13.56,0-19.78-9.19-19.78-18.16Zm38.27,4.54c0-8.11,6.16-14.37,13.89-14.37,8.21,0,13.83,5.35,13.83,13.24s-6.05,14.54-13.83,14.54c-8.92,0-13.89-6.43-13.89-13.4Zm7.35-2.81c0,7.08,2.54,14.27,7.4,14.27,3.51,0,5.62-4,5.62-9.89,0-8.27-3.13-14.1-7.4-14.1s-5.62,5.02-5.62,9.73Zm39.72,13.83v1.51h13.02v-1.46l-3.08-.97v-18.05c1.03-.81,2.92-2.05,4.97-2.05,3.24,0,4.65,2.16,4.76,5.29v14.81l-3.03,.92v1.51h13.29v-1.46l-3.4-.97v-15.73c0-6.32-2.65-8.7-7.4-8.7-4.38,0-8.11,3.57-9.51,5.03h-.16c-.81-3.57-3.03-5.03-6.92-5.03-4.27,0-8.05,3.46-9.51,4.97h-.11l-.38-5.03h-.27l-9.13,2.97v.81l3.3,2.05v18.64l-3.3,.92v1.51h13.29v-1.51l-3.13-.92v-18c1.08-.86,2.97-2.11,5.03-2.11,3.24,0,4.59,2.16,4.76,5.29v14.81l-3.08,.92Zm68.1-15.73v14.81l-3.03,.92v1.51h13.29v-1.46l-3.4-.97v-15.73c0-6.32-2.65-8.7-7.4-8.7-4.38,0-8.11,3.57-9.51,5.03h-.16c-.81-3.57-3.03-5.03-6.92-5.03-4.27,0-8.05,3.46-9.51,4.97h-.11l-.38-5.03h-.27l-9.13,2.97v.81l3.3,2.05v18.64l-3.3,.92v1.51h13.29v-1.51l-3.13-.92v-18c1.08-.86,2.97-2.11,5.03-2.11,3.24,0,4.59,2.16,4.76,5.29v14.81l-3.08,.92v1.51h13.02v-1.46l-3.08-.97v-18.05c1.03-.81,2.92-2.05,4.97-2.05,3.24,0,4.65,2.16,4.76,5.29Zm14.81,9.67c0,5.73,3.13,8.43,7.67,8.43,4,0,7.19-2.76,8.86-4.59l.59,4.43,9.78-1.51v-1.24l-3.62-1.13v-23.45l-10.54,1.78v1.08l3.67,1.35v17.19c-1.03,.81-2.7,1.78-4.81,1.78-3.24,0-4.81-1.89-4.81-5.51v-17.56l-10.16,1.73v1.03l3.35,1.46v14.75Zm45.67,6.05v1.51h13.29v-1.46l-3.35-.97v-15.73c0-6.32-2.7-8.7-7.4-8.7-4.27,0-8.05,3.46-9.51,4.97h-.11l-.38-5.03h-.27l-9.13,2.97v.81l3.3,2.05v18.64l-3.3,.92v1.51h13.29v-1.51l-3.13-.92v-18.05c1.03-.81,2.97-2.05,5.03-2.05,3.24-.05,4.59,2.16,4.76,5.29v14.81l-3.08,.92Zm28.81,0l-3.57-.92v-24.43l-10.16,2.76v.86l3.3,2.16v18.64l-3.4,.92v1.51h13.83v-1.51Zm-7.19-30.59c2.11,0,4-1.78,4-3.94s-1.89-3.94-4-3.94-3.94,1.84-3.94,3.94,1.84,3.94,3.94,3.94Zm11.62,25.83c-.05,4.32,1.73,6.97,6.48,6.97,4.43,0,7.46-2.11,8.48-2.81l-.32-1.24c-.16,.05-1.68,.59-3.3,.59-2.22,0-3.89-.76-4.49-3.13v-17.24h6.91l9.92,25.29-2.38,6.11-.16-.22c-.97-1.3-1.84-2.38-3.67-2.38-2,0-3.73,1.57-3.73,3.73s1.73,3.78,3.78,3.78c2.86,0,4.65-1.95,5.84-4.97l12.27-31.94,2.49-.86v-1.51h-8.43v1.46l3.46,1.08-6.05,16.86-6.11-17.08,2.86-.81v-1.51h-16.99v-6.86h-1.14l-5.57,6.7-4,1.24v1.78h4l-.16,16.97Zm-313.7,17.93v1.57l4.16,1.13v30.59l-4.16,.97v1.62h17.18v-1.78l-5.57-.81v-14.54h6.81l1.78,5.3h1.57v-12.97h-1.51l-1.84,5.57h-6.81v-14.65h11.67l3.19,8.05h1.68v-10.16l-4.54,.11h-23.62Zm56.75,22.21c0,8.21-6.05,14.54-13.83,14.54-8.92,0-13.89-6.43-13.89-13.4,0-8.11,6.16-14.37,13.89-14.37,8.21,0,13.83,5.35,13.83,13.24Zm-7.35,2.7c0-8.27-3.13-14.1-7.4-14.1s-5.62,5.02-5.62,9.73c0,7.08,2.54,14.27,7.4,14.27,3.51,0,5.62-4,5.62-9.89Zm35.78-15.67l-10.54,1.78v1.08l3.67,1.35v17.19c-1.03,.81-2.7,1.78-4.81,1.78-3.24,0-4.81-1.89-4.81-5.51v-17.56l-10.16,1.73v1.03l3.35,1.46v14.75c0,5.73,3.13,8.43,7.67,8.43,4,0,7.19-2.76,8.86-4.59l.59,4.43,9.78-1.51v-1.24l-3.62-1.13v-23.45Zm32.32,8.48c0-6.32-2.7-8.7-7.4-8.7-4.27,0-8.05,3.46-9.51,4.97h-.11l-.38-5.03h-.27l-9.13,2.97v.81l3.3,2.05v18.64l-3.3,.92v1.51h13.29v-1.51l-3.13-.92v-18.05c1.03-.81,2.97-2.05,5.03-2.05,3.24-.05,4.59,2.16,4.76,5.3v14.81l-3.08,.92v1.51h13.29v-1.46l-3.35-.97v-15.73Zm30.7,15.02l3.4,.92v1.24l-9.4,1.67-.59-3.57c-1.62,1.67-4.32,3.73-7.78,3.73-6.81,0-11.02-5.73-11.02-12.65,0-8.92,7.57-14.86,15.35-14.86,.92,0,2.16,.22,3.24,.49v-6.56l-4.16-1.94v-.87l10.97-2.65v35.04Zm-6.81-18.37c-.86-1.41-2.43-3.08-5.3-3.08-3.35,0-6.49,2.76-6.49,9.94,0,5.89,2.81,11.62,7.94,11.62,1.51,0,2.81-.65,3.84-1.35v-17.13Zm35.89,19.02h2.32v1.08s-3.62,2.05-6.27,2.05c-2.92,0-4.32-1.41-4.49-4.32h-.27c-1.73,2.22-3.73,4.48-7.46,4.48s-6.86-2.43-6.86-6.59c0-4.38,3.08-6.38,9.13-7.89l5.24-1.3v-3.62c-.11-3.57-1.78-6-4.65-6-1.24,0-2.16,.38-2.76,.81l-.22,5.94c-.76,.27-1.78,.49-2.97,.49-1.84,0-3.08-.97-3.08-2.7,0-2.97,5.46-6.81,11.94-6.81,5.67,0,8.54,2.49,8.54,8.21v14.38c0,1.46,.43,1.78,1.84,1.78Zm-8.65-10.86l-3.57,1.19c-3.03,.97-4.16,2.65-4.16,4.7,0,2.32,1.35,4.21,3.89,4.21,1.68,0,2.97-.97,3.84-2.05v-8.05Zm26.27,10.59c-2.22,0-3.89-.76-4.49-3.13v-17.24h9.73l3.13,2.05v18.64l-3.4,.92v1.51h13.83v-1.51l-3.57-.92v-23.67h-19.73v-6.86h-1.14l-5.57,6.7-4,1.24v1.78h4l-.16,16.97c-.05,4.32,1.73,6.97,6.48,6.97,4.43,0,7.46-2.11,8.48-2.81l-.32-1.24c-.16,.05-1.68,.59-3.3,.59Zm15.62-33.29c0-2.11-1.89-3.94-4-3.94s-3.94,1.84-3.94,3.94,1.84,3.95,3.94,3.95,4-1.78,4-3.95Zm5.24,23.51c0-8.11,6.16-14.37,13.89-14.37,8.21,0,13.83,5.35,13.83,13.24s-6.05,14.54-13.83,14.54c-8.92,0-13.89-6.43-13.89-13.4Zm7.35-2.81c0,7.08,2.54,14.27,7.4,14.27,3.51,0,5.62-4,5.62-9.89,0-8.27-3.13-14.1-7.4-14.1s-5.62,5.02-5.62,9.73Zm42.26-11.51c-4.27,0-8.05,3.46-9.51,4.97h-.11l-.38-5.03h-.27l-9.13,2.97v.81l3.3,2.05v18.64l-3.3,.92v1.51h13.29v-1.51l-3.13-.92v-18.05c1.03-.81,2.97-2.05,5.03-2.05,3.24-.05,4.59,2.16,4.76,5.3v14.81l-3.08,.92v1.51h13.29v-1.46l-3.35-.97v-15.73c0-6.32-2.7-8.7-7.4-8.7Zm-66.26,40.08l4.16,1.08v30.64l-4.16,1.03v1.57h15.78v-1.57l-4.16-1.03v-30.64l4.16-1.08v-1.57h-15.78v1.57Zm35.34,7.4c-2.49,0-4.05,1.24-6.38,5.67l-.7,1.41h-.22l-.27-7.08h-.27l-9.24,2.97v.81l3.3,2.05v18.64l-3.3,.92v1.51h14.64v-1.51l-4.49-.92v-14.81c.81-2.27,2.54-3.94,3.51-4.27l3.35,2c2.38-.54,3.67-1.89,3.67-4s-1.73-3.4-3.62-3.4Zm27.56,19.56l.87,.81c-2.27,3.35-5.78,7.3-11.78,7.3-7.67,0-12.1-6.32-12.1-13.46,0-8,6.43-14.27,12.97-14.27s9.67,3.89,10.54,11.08h-17.4v.49c0,7.08,4.27,11.08,9.51,11.08,3.24,0,5.78-1.78,7.4-3.03Zm-16.81-10.32h10.05c-.49-4.38-2.05-7.19-4.92-7.19-2.65,0-4.65,2.49-5.13,7.19Zm29.56-20.5l-10.05,3.19v.92l3.19,1.89v29.74l-3.4,.92v1.51h13.83v-1.51l-3.57-.92v-35.74Zm29.02,35.68h2.32v1.08s-3.62,2.05-6.27,2.05c-2.92,0-4.32-1.41-4.49-4.32h-.27c-1.73,2.22-3.73,4.48-7.46,4.48s-6.86-2.43-6.86-6.59c0-4.38,3.08-6.38,9.13-7.89l5.24-1.3v-3.62c-.11-3.57-1.78-6-4.65-6-1.24,0-2.16,.38-2.76,.81l-.22,5.94c-.76,.27-1.78,.49-2.97,.49-1.84,0-3.08-.97-3.08-2.7,0-2.97,5.46-6.81,11.94-6.81,5.67,0,8.54,2.49,8.54,8.21v14.38c0,1.46,.43,1.78,1.84,1.78Zm-8.65-10.86l-3.57,1.19c-3.03,.97-4.16,2.65-4.16,4.7,0,2.32,1.35,4.21,3.89,4.21,1.68,0,2.97-.97,3.84-2.05v-8.05Zm38.75-4.81c0-6.32-2.7-8.7-7.4-8.7-4.27,0-8.05,3.46-9.51,4.97h-.11l-.38-5.03h-.27l-9.13,2.97v.81l3.3,2.05v18.64l-3.3,.92v1.51h13.29v-1.51l-3.13-.92v-18.05c1.03-.81,2.97-2.05,5.03-2.05,3.24-.05,4.59,2.16,4.76,5.3v14.81l-3.08,.92v1.51h13.29v-1.46l-3.35-.97v-15.73Zm34.1,15.94v1.24l-9.4,1.67-.59-3.57c-1.62,1.67-4.32,3.73-7.78,3.73-6.81,0-11.02-5.73-11.02-12.65,0-8.92,7.57-14.86,15.35-14.86,.92,0,2.16,.22,3.24,.49v-6.56l-4.16-1.95v-.87l10.97-2.65v35.04l3.4,.92Zm-10.21-19.29c-.86-1.41-2.43-3.08-5.3-3.08-3.35,0-6.48,2.76-6.48,9.94,0,5.89,2.81,11.62,7.94,11.62,1.51,0,2.81-.65,3.84-1.35v-17.13Z"/><rect class="cls-2" x="283.8" y="235.85" width="169.42" height="9.35"/></g><g><path class="cls-1" d="M86.56,54.43v-18.68h13.22v3.5h-9.24v3.92h9.04v3.5h-9.04v7.76h-3.98Z"/><path class="cls-1" d="M117.75,54.43l-1.18-3.16h-8.01l-1.18,3.16h-4.51l7.2-18.68h4.98l7.2,18.68h-4.51Zm-5.18-14.7l-2.91,8.04h5.82l-2.91-8.04Z"/><path class="cls-1" d="M125.64,45.1c0-5.77,4.34-9.66,9.97-9.66,4.09,0,6.47,2.21,7.78,4.56l-3.42,1.68c-.78-1.51-2.46-2.72-4.37-2.72-3.42,0-5.88,2.6-5.88,6.13s2.46,6.13,5.88,6.13c1.9,0,3.58-1.2,4.37-2.72l3.42,1.65c-1.32,2.32-3.7,4.59-7.78,4.59-5.63,0-9.97-3.92-9.97-9.66Z"/><path class="cls-1" d="M149.28,54.43v-18.68h3.98v18.68h-3.98Z"/><path class="cls-1" d="M160.28,54.43v-18.68h4v15.18h7.9v3.5h-11.9Z"/><path class="cls-1" d="M178.37,54.43v-18.68h3.98v18.68h-3.98Z"/><path class="cls-1" d="M193.85,54.43v-15.18h-5.46v-3.5h14.9v3.5h-5.43v15.18h-4Z"/><path class="cls-1" d="M220.45,54.43l-1.18-3.16h-8.01l-1.18,3.16h-4.51l7.2-18.68h4.98l7.2,18.68h-4.51Zm-5.18-14.7l-2.91,8.04h5.82l-2.91-8.04Z"/><path class="cls-1" d="M232.71,54.43v-15.18h-5.46v-3.5h14.9v3.5h-5.43v15.18h-4Z"/><path class="cls-1" d="M248.2,54.43v-18.68h13.22v3.5h-9.24v3.92h9.04v3.5h-9.04v4.26h9.24v3.5h-13.22Z"/><path class="cls-1" d="M268.02,54.43v-18.68h7.36c5.85,0,9.91,3.72,9.91,9.32s-4.06,9.35-9.88,9.35h-7.39Zm13.22-9.35c0-3.28-2.02-5.82-5.82-5.82h-3.42v11.68h3.39c3.7,0,5.85-2.66,5.85-5.85Z"/><path class="cls-1" d="M302.32,54.43v-18.68h9.83c3.56,0,5.38,2.27,5.38,4.76,0,2.32-1.46,3.92-3.22,4.28,2.02,.31,3.58,2.24,3.58,4.56,0,2.83-1.85,5.07-5.43,5.07h-10.14Zm11.14-13.22c0-1.15-.84-1.96-2.18-1.96h-4.98v3.92h4.98c1.34,0,2.18-.76,2.18-1.96Zm.36,7.59c0-1.18-.84-2.13-2.38-2.13h-5.15v4.26h5.15c1.48,0,2.38-.78,2.38-2.13Z"/><path class="cls-1" d="M328.75,54.43v-7.64l-7.17-11.03h4.54l4.62,7.48,4.62-7.48h4.51l-7.14,11.03v7.64h-3.98Z"/></g></svg>