<svg xmlns="http://www.w3.org/2000/svg" viewBox="0 0 100 30.496">
   <g transform="translate(0,-266.504)">
      <path fill="#0090bb" d="m 50.772297,266.5048 c -3.073259,-0.0329 -5.232851,1.6556 -6.893986,3.36602 v -2.48663 h -6.697749 v 28.77384 h 6.697749 l -0.04932,-14.36686 c -9.3e-5,-6.50673 3.036705,-10.92918 9.438713,-7.71925 l 2.709394,-6.08922 c -1.985102,-1.03516 -3.70392,-1.46182 -5.204805,-1.4779 z m 23.004315,0 c -3.073259,-0.0329 -5.131492,1.6556 -6.792628,3.36602 v -2.48663 h -6.799102 v 28.77384 h 6.799102 l -0.04932,-16.27755 c 0,-8.72312 9.742768,-9.94678 9.742768,-1.51197 l 0.01545,17.78952 h 6.799114 l -0.04932,-16.27755 c 0,-8.72312 9.742776,-9.94678 9.742776,-1.51197 l 0.01545,17.78952 h 6.799097 l -0.0493,-16.27755 c -0.37125,-3.24733 0.0562,-5.72444 -1.882895,-9.08305 -2.20126,-4.19659 -6.282205,-4.29263 -7.783174,-4.29263 -4.670091,0 -7.221451,2.04729 -8.844371,4.36912 -2.201265,-4.1966 -6.162758,-4.35303 -7.663647,-4.36912 z m -60.325523,0.15381 A 13.45103,15.170649 0 0 0 5.006809e-7,281.8292 13.45103,15.170649 0 0 0 13.451089,297 a 13.45103,15.170649 0 0 0 9.045413,-3.96516 v 3.12319 h 6.697748 v -28.77384 h -6.697748 v 3.24125 a 13.45103,15.170649 0 0 0 -9.045413,-3.96683 z m 1.33746,6.0376 a 8.0629756,9.1520668 0 0 1 8.063006,9.15222 8.0629756,9.1520668 0 0 1 -8.063006,9.152 8.0629756,9.1520668 0 0 1 -8.0630058,-9.152 8.0629756,9.1520668 0 0 1 8.0630058,-9.15222 z"/>
   </g>
</svg>
