<svg xmlns="http://www.w3.org/2000/svg" viewBox="-60 40 120 120" stroke="#000">
   <path d="m -25.5,100.4 c -3.5 0 -6.3 2.8 -6.3 6.3 v 30.2 c 0 3.5 2.8 6.3 6.3 6.3 h 51.1 c 3.5 0 6.3 -2.8 6.3 -6.3 V 106.7 c 0 -3.5 -2.8 -6.3 -6.3 -6.3 Z m 9.6 14.8 a 7 7 0 0 1 7 7 a 7 7 0 0 1 -7 7 a 7 7 0 0 1 -7 -7 a 7 7 0 0 1 7 -7 Z m 33.1 0 a 7 7 0 0 1 7 7 a 7 7 0 0 1 -7 7 a 7 7 0 0 1 -7 -7 a 7 7 0 0 1 7 -7 z" fill="#ededed"/>
   <path d="m 36.7,134.2 h 7.6 c 2.7 0 5.2 -1.8 5.2 -6.5 v -13.3 c 0 -4.4 -2.6 -5.1 -5.3 -5.1 h -7.6 v 24.8 z" fill="#0066b3"/>
   <path d="m -36.6,109.4 l -7.6 0 c -2.7 0 -5.2 1.7 -5.2 6.4 l 0 13.3 c 0 4.4 2.6 5.1 5.3 5.1 l 7.6 0 l 0.1 -24.8 z" fill="#0066b3"/>
   <path d="m -.6,56.8 c 0 0 -1.1 0.9 -1.1 3.4 c 0 2.5 -1.5 15.3 -2.6 19.7 c -1.7 6.9 -9 17.4 -9 17.4 h 4 c 0 0 2.7 -7.4 9.1 -7.4 c 6.4 0 9.4 7.3 9.4 7.3 h 4.2 c 0 0 -9.4 -11.8 -10.5 -17.5 c -1.2 -5.7 -2.2 -17 -2.2 -19.5 c 0 -2.5 -1.3 -3.4 -1.3 -3.4 Z m 0.1 24.4 c 0.8 0 0.6 0.5 1.2 1.9 c 0.6 1.5 1.5 2.6 1.5 2.6 h -5.1 c 0.3 -0.4 0.8 -1.4 1.3 -2.7 c 0.5 -1.2 0.3 -1.8 1.1 -1.8 z" style="fill:#ed1c24;stroke-linejoin:round"/>
</svg>
